<svg xmlns="http://www.w3.org/2000/svg" width="33" height="34" viewBox="0 0 33 34">
    <g fill="none" fill-rule="nonzero">
        <path fill="#FFF" stroke="#FFF" d="M31.857 17.429c0 1.125-.321 2.139-.964 3.043-.643.904-1.467 1.537-2.471 1.898a5.413 5.413 0 0 1 .392 3.134c-.181 1.085-.673 2.03-1.477 2.833-.804.804-1.748 1.296-2.833 1.477-1.084.18-2.129.05-3.133-.392-.362 1.004-.995 1.828-1.899 2.47a5.127 5.127 0 0 1-3.043.965 5.127 5.127 0 0 1-3.044-.964c-.904-.643-1.537-1.467-1.898-2.471a5.413 5.413 0 0 1-3.134.392c-1.085-.181-2.03-.673-2.833-1.477-.803-.804-1.296-1.748-1.476-2.833a5.413 5.413 0 0 1 .391-3.134c-1.004-.361-1.828-.994-2.47-1.898A5.127 5.127 0 0 1 1 17.429c0-1.125.321-2.14.964-3.044.643-.904 1.467-1.537 2.471-1.898a5.413 5.413 0 0 1-.391-3.134c.18-1.085.673-2.03 1.476-2.833.804-.804 1.748-1.296 2.833-1.477a5.413 5.413 0 0 1 3.134.392c.361-1.004.994-1.828 1.898-2.47A5.127 5.127 0 0 1 16.429 2c1.125 0 2.14.321 3.043.964.904.643 1.537 1.467 1.899 2.471a5.413 5.413 0 0 1 3.133-.392c1.085.181 2.03.673 2.833 1.477.804.804 1.296 1.748 1.477 2.833.18 1.084.05 2.13-.392 3.134 1.004.361 1.828.994 2.47 1.898.644.904.965 1.919.965 3.044zm-8.739-2.652l-7.895 7.835a.613.613 0 0 1-.452.18.613.613 0 0 1-.452-.18L9.74 17.97a.613.613 0 0 1-.181-.452c0-.18.06-.332.18-.452l1.568-1.567c.12-.12.271-.18.452-.18.18 0 .351.06.512.18l2.531 2.591 5.846-5.846c.12-.12.272-.18.452-.18.181 0 .332.06.452.18l1.567 1.567c.12.121.181.282.181.483 0 .2-.06.361-.18.482z"/>
        <path fill="#D8674E" d="M16.429 4.286c.958 0 1.822.273 2.592.821.77.548 1.31 1.25 1.617 2.105a4.611 4.611 0 0 1 2.67-.334 4.355 4.355 0 0 1 2.413 1.258 4.355 4.355 0 0 1 1.258 2.413 4.611 4.611 0 0 1-.334 2.67c.856.308 1.557.847 2.105 1.617s.821 1.634.821 2.593c0 .958-.273 1.822-.821 2.592-.548.77-1.25 1.31-2.105 1.617.377.856.488 1.746.334 2.67a4.355 4.355 0 0 1-1.258 2.413 4.355 4.355 0 0 1-2.413 1.258 4.611 4.611 0 0 1-2.67-.334c-.308.856-.847 1.557-1.617 2.105a4.367 4.367 0 0 1-2.592.821 4.367 4.367 0 0 1-2.593-.821c-.77-.548-1.31-1.25-1.617-2.105a4.611 4.611 0 0 1-2.67.334 4.355 4.355 0 0 1-2.413-1.258 4.355 4.355 0 0 1-1.258-2.413 4.611 4.611 0 0 1 .334-2.67c-.856-.308-1.557-.847-2.105-1.617a4.367 4.367 0 0 1-.821-2.592c0-.959.274-1.823.821-2.593.548-.77 1.25-1.31 2.105-1.617a4.611 4.611 0 0 1-.334-2.67 4.355 4.355 0 0 1 1.258-2.413A4.355 4.355 0 0 1 9.55 6.878a4.611 4.611 0 0 1 2.67.334c.308-.856.847-1.557 1.617-2.105a4.367 4.367 0 0 1 2.593-.821zm4.88 8.762a.594.594 0 0 0-.412.147l-5.325 4.775-2.306-2.117a.822.822 0 0 0-.466-.147.594.594 0 0 0-.412.147l-1.427 1.28a.475.475 0 0 0-.165.37c0 .147.055.27.165.369l4.172 3.79c.11.098.247.147.412.147.164 0 .302-.049.411-.147l7.192-6.4a.503.503 0 0 0 .165-.393.503.503 0 0 0-.165-.394l-1.427-1.28a.594.594 0 0 0-.412-.147z"/>
    </g>
</svg>
