<svg xmlns="http://www.w3.org/2000/svg" xmlns:xlink="http://www.w3.org/1999/xlink" width="232" height="116" viewBox="0 0 232 116">
    <defs>
        <path id="a" d="M0 114.645h231.857V.095H0z"/>
    </defs>
    <g fill="none" fill-rule="evenodd">
        <path fill="#0C3353" d="M184.195 90.616h1.538l10.218 14.989 10.154-14.99h1.57v23.619h-3.204V98.286l-8.136 11.921h-.833l-8.136-11.92v15.947h-3.17z"/>
        <path fill="#0C3353" d="M205.866 90.17l-9.916 14.64-9.98-14.64h-2.222v24.51h4.066V99.735l7.452 10.92h1.306l7.452-10.92v14.947h4.097V90.169z"/>
        <g transform="translate(0 .27)">
            <path fill="#0C3353" d="M36.513 97.37c0 .799-.299 3.41-4.143 3.41h-3.607v-6.758H33c1.62 0 3.513.876 3.513 3.347m4.318.031c0-3.596-2.46-7.467-7.863-7.467h-8.46v24.335h4.255v-9.431h2.36l6.05 9.431h5.211l-6.639-9.903c3.74-1.19 5.086-4.44 5.086-6.965"/>
            <mask id="b" fill="#fff">
                <use xlink:href="#a"/>
            </mask>
            <path fill="#0C3353" d="M46.574 114.268h4.255V89.933h-4.255zM71.85 105.558L58.614 90.092l-.135-.159h-2.226v24.335h4.224V98.75l13.013 15.359.136.16h2.448V89.933H71.85zM146.22 105.558l-13.235-15.466-.136-.159h-2.226v24.335h4.225V98.75l13.012 15.359.137.16h2.448V89.933h-4.225zM100.517 89.933h-5.19l-9.873 11.681V89.933h-4.256v24.335h4.256v-6.793l2.618-3.078 7.94 9.871h5.335L90.849 101.43z" mask="url(#b)"/>
            <path fill="#0C3353" d="M121.772 102.148c0 4.758-3.543 8.346-8.24 8.346-4.678 0-8.206-3.588-8.206-8.346 0-4.733 3.604-8.44 8.207-8.44 4.62 0 8.239 3.707 8.239 8.44m-8.24-12.623c-6.94 0-12.588 5.705-12.588 12.717 0 3.37 1.272 6.495 3.58 8.803 2.322 2.322 5.488 3.6 8.915 3.6 3.427 0 6.63-1.304 9.022-3.673a12.377 12.377 0 0 0 3.692-8.855c0-6.944-5.661-12.592-12.62-12.592M227.1 89.933l-5.709 11.095-5.618-11.095h-4.754l8.241 15.558v8.777h4.256v-8.775l8.341-15.56zM7.592 89.823H0v4.232h7.592c4.414 0 8.004 3.583 8.004 7.987s-3.59 7.986-8.004 7.986H0v4.232h7.592c6.752 0 12.246-5.481 12.246-12.218 0-6.738-5.494-12.219-12.246-12.219M167.008 93.708c4.62 0 8.239 3.707 8.239 8.44 0 4.758-3.542 8.346-8.239 8.346-4.679 0-8.207-3.588-8.207-8.346 0-4.733 3.605-8.44 8.207-8.44m0-4.184c-6.941 0-12.589 5.705-12.589 12.718 0 3.37 1.272 6.495 3.58 8.803 2.323 2.322 5.489 3.6 8.915 3.6 3.426 0 6.631-1.304 9.022-3.673a12.376 12.376 0 0 0 3.692-8.856c0-6.943-5.661-12.592-12.62-12.592M179.546 84.401a1.287 1.287 0 0 1-2.573 0 1.286 1.286 0 0 1 2.573 0m-1.287-4.25A4.26 4.26 0 0 0 174 84.4a4.26 4.26 0 0 0 8.52 0 4.26 4.26 0 0 0-4.26-4.25" mask="url(#b)"/>
            <path fill="#F4A897" d="M115.247 31.296c-1.557 3.007-3.914 4.79-6.816 5.157-2.204.279-10.238.182-10.238.182V12.456s5.881.026 7.157-.007c6.271-.15 10.481 3.584 11.295 10.012.414 3.273-.056 6.245-1.398 8.835m5.767-14.621c-1.439-3.794-4.1-6.504-7.911-8.056-2.084-.848-4.408-1.268-7.11-1.284-3.066.008-6.131.005-9.196.003l-3.962-.002v34.567l3.316.004c1.154.002 2.324.005 3.499.005 1.881 0 3.776-.006 5.646-.026 1.613-.016 3.001-.13 4.243-.347 5.796-1.014 9.704-4.159 11.616-9.348 1.878-5.098 1.83-10.318-.14-15.516" mask="url(#b)"/>
            <path fill="#F4A897" d="M149.675 7.425V30.15c0 18.364-14.975 33.305-33.38 33.305-18.407 0-33.38-14.94-33.38-33.305V7.425h-6.159V30.15c0 21.752 17.737 39.45 39.538 39.45s39.539-17.698 39.539-39.45V7.425h-6.158z" mask="url(#b)"/>
            <path fill="#EE795F" d="M120.915 47.31c-6.596 0-11.571-5.058-11.571-11.764 0-6.671 5.083-11.896 11.571-11.896 6.513 0 11.615 5.225 11.615 11.896 0 6.706-4.993 11.764-11.615 11.764m0-29.24c-9.61 0-17.427 7.898-17.427 17.607 0 4.664 1.76 8.992 4.954 12.186 3.215 3.213 7.599 4.983 12.342 4.983 4.744 0 9.18-1.806 12.49-5.085a17.133 17.133 0 0 0 5.112-12.26c0-9.611-7.837-17.431-17.47-17.431" mask="url(#b)"/>
            <path fill="#D9A028" d="M134.22 6.853a2.478 2.478 0 0 1-4.957 0 2.479 2.479 0 0 1 4.957 0M131.742.096c-3.735 0-6.774 3.031-6.774 6.757 0 3.727 3.039 6.758 6.774 6.758 3.734 0 6.772-3.031 6.772-6.758 0-3.726-3.038-6.757-6.772-6.757" mask="url(#b)"/>
        </g>
    </g>
</svg>
