<svg xmlns="http://www.w3.org/2000/svg" width="38" height="32" viewBox="0 0 38 32">
    <g fill="none" fill-rule="evenodd">
        <path fill="#0C3353" d="M-161-12h360v56h-360z"/>
        <path fill="#F7A998" d="M18.623 14.317c-.713 1.38-1.792 2.198-3.12 2.366-1.01.128-4.688.084-4.688.084V5.672s2.693.012 3.277-.003c2.87-.07 4.798 1.644 5.17 4.594.19 1.502-.025 2.866-.639 4.054m2.64-6.71c-.658-1.74-1.877-2.984-3.622-3.696-.954-.389-2.018-.582-3.255-.59-1.404.005-2.807.003-4.21.002H8.362v15.861l1.518.002 1.602.002c.861 0 1.729-.002 2.584-.011.74-.008 1.375-.06 1.943-.16 2.654-.465 4.443-1.908 5.319-4.29.86-2.338.838-4.734-.065-7.12"/>
        <path fill="#F7A998" d="M34.385 3.363v10.429c0 8.426-6.856 15.282-15.283 15.282S3.82 22.218 3.82 13.792V3.363H1v10.429c0 9.981 8.12 18.102 18.102 18.102 9.982 0 18.103-8.12 18.103-18.102V3.363h-2.82z"/>
        <path fill="#EE795F" d="M21.218 21.665c-3.02 0-5.298-2.32-5.298-5.398 0-3.06 2.327-5.459 5.298-5.459 2.982 0 5.318 2.398 5.318 5.459 0 3.078-2.286 5.398-5.318 5.398m0-13.417c-4.4 0-7.98 3.624-7.98 8.08 0 2.14.806 4.126 2.27 5.591 1.471 1.475 3.478 2.287 5.65 2.287s4.203-.83 5.719-2.334a7.871 7.871 0 0 0 2.34-5.625c0-4.41-3.589-8-8-8"/>
        <path fill="#D9A028" d="M27.31 3.101a1.136 1.136 0 0 1-2.27 0 1.136 1.136 0 0 1 2.27 0M26.174 0a3.105 3.105 0 0 0-3.102 3.101 3.105 3.105 0 0 0 3.102 3.101c1.71 0 3.1-1.39 3.1-3.101A3.104 3.104 0 0 0 26.176 0"/>
    </g>
</svg>
