<svg xmlns="http://www.w3.org/2000/svg" width="22" height="22" viewBox="0 0 22 22">
    <g fill-rule="evenodd" clip-rule="evenodd">
        <path d="M9.801,13.424L13.709,0.265L15.291,0.735L11.14,14.71C11.138,14.747 11.135,14.777 11.13,14.798C11.124,14.828 11.113,14.848 11.104,14.858L11.093,14.871L10.976,15.262C11.288,15.888 11.522,16.53 11.671,17.169C11.814,17.781 11.756,18.313 11.498,18.781L15.78,18.781L19.009,5.671L16.358,5.662L16.364,3.912L21.241,3.929L16.921,21.469L4.075,21.469L0.958,3.719L10.186,3.719L10.186,5.469L3.042,5.469L5.38,18.781L7.227,18.781C6.971,18.339 6.88,17.841 6.956,17.296C7.002,16.954 7.156,16.634 7.443,16.292C7.885,15.763 8.449,15.278 9.217,14.765C9.301,14.71 9.351,14.646 9.398,14.54C9.439,14.448 9.5,14.336 9.564,14.222L9.77,13.528C9.77,13.507 9.773,13.487 9.779,13.469C9.784,13.453 9.792,13.438 9.801,13.424ZM9.703,16.44L9.519,16.599C9.25,16.83 8.973,17.07 8.723,17.322L8.723,17.322C8.459,17.587 8.578,17.891 8.671,18.05C8.867,18.39 9.252,18.53 9.626,18.401C10,18.271 10.175,17.962 10.081,17.591C10.004,17.283 9.893,16.975 9.787,16.676C9.759,16.598 9.73,16.519 9.703,16.44Z" fill="rgb(12,51,83)" />
    </g>
</svg>